<?xml version="1.0" encoding="utf-8"?>
<!-- Generator: Adobe Illustrator 21.1.0, SVG Export Plug-In . SVG Version: 6.00 Build 0)  -->
<svg version="1.1" id="Calque_2" xmlns="http://www.w3.org/2000/svg" xmlns:xlink="http://www.w3.org/1999/xlink" x="0px" y="0px"
	 viewBox="0 0 648 252" style="enable-background:new 0 0 648 252;" xml:space="preserve">
<style type="text/css">
	.st0{fill:#FFFFFF;}
</style>
<g>
	<polygon class="st0" points="562.1,143.7 581.6,107 607.5,107 576.2,143.7 	"/>
	<g>
		<polygon class="st0" points="418,160.7 418,160.9 423.7,160.9 430.3,131.1 430.3,131 424.6,131 		"/>
		<polygon class="st0" points="441.8,131.1 441.9,131 435.6,131 434.2,137.4 436.5,137.4 433.2,143.2 433.1,143.4 436.4,143.4 
			440.5,137.2 		"/>
		<path class="st0" d="M452.3,138.7l-0.2,0c-3.1,0-7,1.7-8.8,4l-0.2,0.2l3.2,2.9l0.2-0.2c1.2-1.2,2.7-2.5,5-2.5c0.9,0,1.6,0.3,2,0.7
			c0.3,0.4,0.4,0.8,0.2,1.4l-0.3,1.6c-8.6,1-12.9,3.7-13.9,8.5c-0.4,1.7-0.1,3.3,0.8,4.4c0.9,1.1,2.2,1.6,4,1.6c2.8,0,5-1,6.7-2
			l-0.1,1.6h5.6l0-0.4c-0.1-0.8,0-1.7,0.3-2.9l2.2-9.9c0.7-3.3,0.5-5.4-0.5-6.8C457.2,139.5,455.3,138.8,452.3,138.7z M445.2,154.8
			c0.6-2.7,4.1-3.4,7.3-4l-0.9,4c-1.4,1-3.5,2.1-4.8,2.1c-0.6,0-1.1-0.2-1.4-0.5C445.1,156,445,155.5,445.2,154.8z"/>
		<path class="st0" d="M473,138.7c-5.8,0-10.4,4.3-11.9,11.2c-0.8,3.8-0.4,6.9,1.2,8.9c1.3,1.6,3.3,2.4,5.9,2.4h0.1
			c3.9,0,6.8-1.6,9.7-5.4l0.2-0.3l-3.9-2.5l-0.2,0.2c-1.3,1.7-2.8,3.2-4.9,3.2c-1,0-1.8-0.3-2.2-0.9c-0.8-1-0.9-2.8-0.2-5.7
			c1-4.5,2.7-6.6,5.3-6.6c2.3,0,2.7,1.3,3.1,2.9l0.1,0.3l5-1.8l0.1,0l0-0.2C479.9,141,477.1,138.7,473,138.7z"/>
		<path class="st0" d="M493.2,138.7c-5.8,0-10.3,4.3-11.9,11.2c-0.8,3.8-0.4,6.9,1.2,8.9c1.3,1.6,3.3,2.4,5.9,2.4h0.1
			c3.9,0,6.8-1.6,9.7-5.4l0.2-0.3l-3.8-2.4l-0.1-0.1l-0.2,0.2c-1.2,1.6-2.8,3.2-4.9,3.2c-1,0-1.8-0.3-2.2-0.9
			c-0.8-1-0.9-2.8-0.2-5.7c1-4.5,2.7-6.6,5.3-6.6c2.3,0,2.7,1.3,3.1,2.9l0.1,0.3l5-1.8l0.1,0l0-0.2
			C500.2,141,497.4,138.7,493.2,138.7z"/>
		<path class="st0" d="M513.5,138.7c-5.8,0-10.4,4.3-11.9,11.2c-0.9,3.8-0.4,6.9,1.2,9c1.3,1.6,3.2,2.4,5.6,2.4
			c4.2,0,7.4-1.4,10-4.4l0.2-0.3L515,154l-0.2,0.2c-1.5,1.4-2.8,2.4-5,2.4c-1,0-1.7-0.3-2.2-0.9c-0.7-0.9-0.9-2.4-0.5-4.5h12.7
			l0.5-2.3c0.7-3,0.2-5.9-1.3-7.7C517.7,139.6,515.8,138.7,513.5,138.7z M512.6,143.1c1,0,1.7,0.3,2.2,0.9c0.6,0.7,0.8,1.8,0.5,3.1
			h-7.4C508.7,144.6,510.4,143.1,512.6,143.1z"/>
		<path class="st0" d="M537.3,138.7c-2.3,0-4.6,1.2-6.6,2.3l0.4-1.9h-5.2l-4.8,21.5l0,0.2h5.7l3.4-15.3c0.3-0.3,2.3-2.1,4.9-2.1
			c0.7,0,1.1,0.1,1.4,0.4c0.4,0.5,0.4,1.5,0.1,2.9l-3.1,13.9l0,0.2h5.7l3.3-14.7c0.6-2.5,0.3-4.5-0.7-5.7
			C540.7,139.3,539.3,138.7,537.3,138.7z"/>
		<path class="st0" d="M553.8,143.8h4.1l1-4.7h-4.1l1.5-6.8l0-0.2h-5.7l-1.5,7h-2.9l-1,4.7h2.9l-2.7,12.2c-0.4,1.7-0.2,3,0.5,3.9
			c0.7,0.9,2,1.4,3.9,1.4c1.3,0,2.5-0.1,3.7-0.3l0.6-0.1l1.1-4.8l-0.5,0.1c-0.2,0-0.3,0.1-0.5,0.1l-0.2,0c-0.6,0.1-1.2,0.3-1.7,0.3
			c-0.6,0-1-0.1-1.1-0.3c-0.1-0.1-0.1-0.4,0-0.8L553.8,143.8z"/>
	</g>
	<g>
		<path class="st0" d="M385.2,178.6c-1.5-1.7-3.1-2.4-5.5-2.4c-5,0-9.6,4.6-11,11c-0.9,4.2-0.6,7.3,1,9.3c1.2,1.5,3,2.2,5.4,2.2
			c2.6,0,4.8-0.8,6.6-2.3l-0.1,1.9h2.7l6.5-29.2l0.1-0.5h-3.5L385.2,178.6z M384.4,182.3l-2.2,9.8c-2.1,2.2-3.9,3.5-6.5,3.5
			c-1.3,0-2.3-0.4-3-1.2c-1-1.3-1.3-3.6-0.6-6.6c1.2-5.4,4.1-8.6,7.8-8.6C381.9,179.2,383.9,181.2,384.4,182.3z"/>
		<polygon class="st0" points="401,168.6 396.4,168.6 395.4,173.3 396.8,173.3 393.2,179.2 396,179.2 400,173 		"/>
		<path class="st0" d="M417.2,168.6h-4.8l-15.8,29.1l-0.3,0.6h4l5-9.3h9.9l0.8,9l0,0.4h3.9l-2.8-29.3L417.2,168.6z M415.1,185.7h-8
			l6.8-12.6L415.1,185.7z"/>
		<path class="st0" d="M449.3,176.2c-3,0-5.3,1.6-7.2,3.2c-0.5-1.9-2.3-3.2-4.5-3.2c-2.9,0-4.8,1.1-6.7,2.6l0.5-2.2h-3.5l-4.8,21.7
			h3.5l3.4-15.4c1.7-1.8,4.8-3.6,6.5-3.6c1,0,1.7,0.2,2,0.7c0.4,0.4,0.4,1.1,0.2,2.1l-3.6,16.3h3.5l3.4-15.4
			c1.6-1.8,4.9-3.6,6.5-3.6c1,0,1.7,0.2,2,0.7c0.4,0.4,0.4,1.1,0.2,2.1l-3.6,16.3h3.5l3.5-15.8c0.5-2,0.2-3.6-0.6-4.7
			C452.6,176.7,451.2,176.2,449.3,176.2z"/>
		<polygon class="st0" points="473.6,169.2 469.1,169.2 466.1,174.9 468.8,174.9 		"/>
		<path class="st0" d="M467.9,176.2c-5.4,0-9.9,4.4-11.4,11.1c-0.9,4-0.5,7,1,9c1.3,1.6,3.3,2.4,5.9,2.4c4,0,6.4-1.3,9.7-5.2
			l0.4-0.5l-2.6-1.6l-0.3,0.4c-2.7,3.1-4,4-6.5,4c-1.5,0-2.7-0.5-3.4-1.4c-1-1.3-1.3-3.5-0.8-6.2h14.3l0.1-0.4
			c0.9-4.1,0.5-7.2-1-9.2C472,176.9,470.3,176.2,467.9,176.2z M470.3,180.3c0.8,0.9,1.2,2.5,1,4.7h-10.7c0.8-2.4,3.2-5.8,6.8-5.8
			v-0.4l0,0h0.1l0,0l0,0.4C468.7,179.2,469.6,179.6,470.3,180.3z"/>
		<path class="st0" d="M491,176.2h-1.8c-2.1,0-4.2,1-5.9,2.8l0.5-2.4h-3.5l-4.8,21.7h3.5l2.7-12.1c0.8-3.5,4.6-6.6,7-6.6h1.5
			L491,176.2z"/>
		<polygon class="st0" points="498.9,168.6 495.4,168.6 494.3,173.2 497.9,173.2 		"/>
		<polygon class="st0" points="488.9,197.8 488.8,198.2 492.3,198.2 497.1,176.6 493.6,176.6 		"/>
		<path class="st0" d="M515.1,178.8c-1.5-1.7-3.3-2.5-5.7-2.5c-5.6,0-9.6,4-11.2,11.1c-0.8,3.6-0.3,6.8,1.3,8.9
			c1.2,1.5,2.9,2.3,5,2.3c2.6,0,4.4-0.8,6.2-2.2l-2,9h3.5l6.4-28.7h-2.7L515.1,178.8z M513.8,182.5l-2.2,9.7
			c-1.1,1.4-4.1,3.4-6.1,3.4c-1.4,0-2.5-0.4-3.2-1.3c-1.1-1.4-1.3-3.8-0.6-7c1.1-5,3.8-7.9,7.3-7.9
			C511.6,179.4,512.8,180.6,513.8,182.5z"/>
		<path class="st0" d="M532.8,191.9l-0.7,0.5c-2.6,2-4.1,3.2-6.3,3.2c-1.1,0-1.9-0.3-2.3-0.8c-0.5-0.7-0.6-1.9-0.2-3.8l3.2-14.5
			h-3.5l-3.2,14.5c-0.6,2.7-0.4,4.6,0.6,5.9c0.9,1.1,2.4,1.7,4.5,1.7c2.7,0,4.7-1,6.9-2.7l-0.5,2.4h3.5l4.8-21.7h-3.5L532.8,191.9z"
			/>
		<path class="st0" d="M557.6,178.4c-1.2-1.5-3-2.2-5.4-2.2c-5.4,0-9.8,4.4-11.3,11.1c-0.9,4-0.5,7,1,9c1.3,1.6,3.3,2.4,5.9,2.4
			c4,0,6.4-1.3,9.7-5.2l0.4-0.5l-2.7-1.6l-0.3,0.4c-2.7,3.1-4.1,4-6.5,4c-1.5,0-2.7-0.5-3.4-1.4c-1-1.3-1.3-3.5-0.8-6.2h14.3
			l0.1-0.4C559.5,183.5,559.1,180.4,557.6,178.4z M551.6,179.2v-0.4V179.2c1.3,0,2.3,0.4,2.9,1.1c0.8,1,1.2,2.5,1,4.7h-10.7
			C545.7,182.6,548.1,179.2,551.6,179.2z"/>
	</g>
	<g>
		<path class="st0" d="M187.7,129.3c-0.2-0.1-0.8,0-1.2,0.4c-0.2,0.2-0.3,0.4-0.5,0.7c-0.7,1-1.6,2.4-4.3,2.4h-7.3v-7.5h8.6v-2.7
			h-8.6v-6.2h8c0.9,0,1.5,0.4,2.1,0.8c0.4,0.3,0.7,0.5,1.1,0.6c0.3,0.1,0.6,0,0.7,0l0.5-0.1l-1.5-4h-17.8v0.7c0,0.5,0.5,0.7,1,0.9
			c0.6,0.2,1.3,0.5,1.3,1v19.1h16.8l1.6-6.1L187.7,129.3z"/>
		<path class="st0" d="M152.1,113.8h-8.4v0.7c0,0.5,0.5,0.7,1,0.9c0.6,0.2,1.3,0.5,1.3,1v19h7.1c2.4,0,4.5-0.4,6.3-1.2
			c4.1-1.9,6.6-5.5,6.6-9.8C165.9,117.8,160.8,113.8,152.1,113.8z M161.8,125.1c0,3-1.6,5.6-4.2,6.9l0,0c-1.2,0.6-2.7,0.8-3.6,0.8
			h-3.2v-16.4h0.1C160.3,116.5,161.8,121.9,161.8,125.1z"/>
		<path class="st0" d="M56.6,109.8c0,0.5,0.5,0.6,1,0.8c0.7,0.2,1,0.3,1,0.6c0,0.4-0.5,1.7-0.8,2.6l-5.9,15.9l-8.2-20.3l-0.1-0.2H37
			v0.7c0,0.5,0.5,0.6,1,0.8c0.6,0.2,1.4,0.5,1.8,1.3l9.9,23.6h3.4l9.9-25.9l0.2-0.5h-6.6V109.8z"/>
		<path class="st0" d="M132.3,129.7c-0.2,0.2-0.3,0.4-0.5,0.7c-0.7,1-1.6,2.4-4.3,2.4h-7.3v-7.5h8.6v-2.7h-8.6v-6.2h8
			c0.9,0,1.5,0.4,2.1,0.8c0.4,0.3,0.7,0.5,1.1,0.6c0.3,0.1,0.6,0,0.7,0l0.5-0.1l-1.5-4h-17.8v0.7c0,0.5,0.5,0.7,1,0.9
			c0.6,0.2,1.3,0.5,1.3,1v19.1h16.8l1.6-6.1l-0.4-0.1C133.2,129.3,132.7,129.3,132.3,129.7z"/>
		<path class="st0" d="M111.9,129.7c-0.2,0.2-0.3,0.4-0.5,0.7c-0.7,1-1.6,2.4-4.3,2.4h-6.3v-19h-7v0.7c0,0.5,0.5,0.7,1,0.9
			c0.6,0.2,1.3,0.5,1.3,1v19.1h15.8l1.6-6.1l-0.4-0.1C112.9,129.3,112.3,129.3,111.9,129.7z"/>
		<path class="st0" d="M92.4,129.7c-0.2,0.2-0.3,0.4-0.5,0.7c-0.7,1-1.6,2.4-4.3,2.4h-6.3v-19h-7v0.7c0,0.5,0.5,0.7,1,0.9
			c0.6,0.2,1.3,0.5,1.3,1v19.1h15.8l1.6-6.1l-0.4-0.1C93.4,129.3,92.8,129.3,92.4,129.7z"/>
		<path class="st0" d="M63.6,114.5c0,0.5,0.5,0.7,1,0.9c0.6,0.2,1.3,0.5,1.3,1v19.1h4.7v-21.7h-7V114.5z"/>
	</g>
	<g>
		<path class="st0" d="M168.9,153.3c2.4-0.5,11-5.3,16.5-8.2h-9.7l-8.6,7.8C167.1,152.8,167.8,153.5,168.9,153.3z"/>
		<path class="st0" d="M133.5,157.3v0.6c0,1,4.8,1.4,4.8,3.7v22.9c0,6.9-5.3,11.2-12.1,11.2c-6.7,0-12.1-4.5-12.1-11.4v-27h-12.1
			c0,0,0,0,0,0.6c0,1.1,3.9,1.4,3.9,4.3v21.1c0,10.1,6.9,15.9,19.6,15.9c4.8,0,9.5-1.9,12.7-4.8v4.1h12.1c0,0,0,0,0-0.6
			c0-1.1-3.9-1.4-3.9-4.3v-36.4H133.5z"/>
		<path class="st0" d="M325.1,168.1c-0.4-3.3-0.7-6.5-0.8-9.8c-3.6-1.4-7.9-2-11.9-2c-12.9,0-27.5,6.8-27.5,21.9
			c0,15.2,14,21.5,24.1,21.5c6.6,0,13.1-1.6,17.3-5l0.3-3.6c-4.4,2.4-9.6,4.2-15,4.2c-11,0-19.5-9.2-19.5-19.2
			c0-8.6,6.8-15.7,18.2-15.7c3.8,0,8.2,0.9,11,3.4c1.5,1.2,2.3,4.3,3.1,4.3H325.1z"/>
		<path class="st0" d="M154.1,158c0,1,4.8,1.4,4.8,3.7v36.9h33.5l3-10.7c0,0-0.9-0.2-1.7,0.6c-1.6,1.6-3,6.4-10.6,6.4h-16.1v-16.4
			h18v-3.8h-18V161h17.4c3.5,0,4.9,2.4,7,2.9c0.5,0.1,1,0,1,0l-2.7-6.6h-35.7V158z"/>
		<path class="st0" d="M240.7,158c0,1,4.8,1.4,4.8,3.7v36.9h33.5l3-10.7c0,0-0.9-0.2-1.7,0.6c-1.6,1.6-3,6.4-10.6,6.4h-16.1v-16.4
			h18v-3.8h-18V161H271c3.5,0,4.9,2.4,7,2.9c0.5,0.1,1,0,1,0l-2.7-6.6h-35.7V158z"/>
		<path class="st0" d="M196.9,157.3v0.6c0,1,4.8,1.4,4.8,3.7v36.9h15.7c3.8,0,7-0.3,9.8-1c7.8-2,11.7-6.6,11.7-11.2
			c0-6.9-6.7-9.5-14.2-10.2V176c5.6-1.4,9.9-3.9,9.9-9c0-7.4-7.5-9.6-17.7-9.6H196.9z M216.6,161c1.8,0,3.4,0.1,4.9,0.4
			c3.4,0.8,5.8,2.8,5.8,6.3c0,3.3-2.5,5.7-7.2,6.7c-1.8,0.4-3.9,0.5-6.4,0.5h-3.8V161H216.6z M217.3,178.5c2.1,0,4,0,5.6,0.4
			c5.3,1,8.3,3.8,8.3,8.2c0,3.8-3.2,6.4-8.8,7.4c-2.2,0.4-4.8,0.4-7.6,0.4h-4.9v-16.4H217.3z"/>
		<path class="st0" d="M133.1,209.2c0,0.5-0.4,0.7-0.9,0.9c-4.4,2.3-12.6,5.8-23,5.8c-11,0-18.6-3.1-30.7-10.6l-8.8-5.5
			c-1.1,0.1-2.2,0.1-3.4,0.1c-16.6-0.5-29.2-12.8-28.2-27.6c1-14.8,15.2-26.4,31.7-25.9c16.6,0.5,29.2,12.8,28.2,27.6
			c-0.7,10.7-8.4,19.8-18.9,23.8l8,4.6c15.3,8.4,25,9.3,29.9,9.3c3.8,0,9.1-0.6,14.1-2.7c0.4-0.2,0.8-0.4,1.1-0.4
			C132.9,208.5,133.1,208.8,133.1,209.2z M67.2,152c-11.7,0-20.8,9.5-20.2,21.1c0.6,11.7,10.6,21.1,22.3,21.1
			c11.7,0,20.8-9.5,20.2-21.1C88.9,161.5,78.9,152,67.2,152z"/>
	</g>
	<g>
		<path class="st0" d="M238.1,80.3c-5.3-7.6-6.9-17.7,5-21.1l19.3-3.8c-4.5,4.3-6,11.2-0.1,20.8C250.9,70.7,237.1,71.5,238.1,80.3z"
			/>
		<path class="st0" d="M297.1,69.9c-6.8-10.3-3.8-18.5-0.2-22.2l-25.7,5.5c-11.4,4.8-8.5,15.6-4.4,21.7
			C266.1,67.1,278.1,63,297.1,69.9z"/>
		<path class="st0" d="M275.2,111c-22.4-18.8-14-31.3-6.3-35.1l28.5-5.3c-12.8,13.2-8,28.5-1.6,36.2C284.6,100.6,269,100,275.2,111z
			"/>
		<path class="st0" d="M251,104.1c-3.9,0.2-5.8,2.7-5.3,5.7c-9-6.7-14.7-18-7.4-28l24.4-4.5c-5.8,5.4-9.4,18.1,8.7,33.5
			C265.4,109,259,103.6,251,104.1z"/>
		<path class="st0" d="M319.2,67.6c-14.1,3-38.3,14.5-20.2,37.9c-3.1-9.3,6.6-10.2,20.4-8C310.9,92,305.1,80.6,319.2,67.6z"/>
		<path class="st0" d="M289.2,114.1l0.8-2.3l4.6-0.3l1.7-3.5l13.8-4.1l1.3-3.1l12-3.9c2.1,4.7,0.6,9.5-1.7,13.3
			c-1.4,2.3-3.3,4.2-4.6,5.8c-3.6,4.3-2.5,11.7,1.3,19.1h-66.3c-5.6-5.2-7.5-10.2-10.1-15.3c-2.6-5.1-5.6-7.4-13.5-12.7
			c-1.9-1.3-0.9-3.1,1.2-1.8l5.8,3.5C251,114.4,271.3,114.6,289.2,114.1z"/>
		<path class="st0" d="M214,89.5l2.7,0.1c-4.2-2.9-7.7-5.4-8.6-6.1c-1.4-0.9-1.6,0.3-0.8,0.8L214,89.5z"/>
		<path class="st0" d="M226.5,96.4c0,0-1.1,2-0.2,3.2l7.8,6.5l8,2.1L226.5,96.4z"/>
		<path class="st0" d="M249.5,40.3c0.1-1.2,0.5-1.3,0.6-0.2c0.1,1.1,1.3,13.6,1.3,14.6c0,1-0.1,1.3-0.4,1.4
			c-0.3,0.1-0.9,0.2-1.3,0.2c-0.4,0-0.5-0.1-0.6-0.7C249.1,55,249.4,42.5,249.5,40.3z"/>
		<path class="st0" d="M283.3,29.9c0-0.5,0.1-0.9,0.4-0.9c0.3,0,0.4,0.3,0.4,0.7c0.1,0.9,1.2,18.2,1.2,18.7c0,0.5-0.1,0.7-0.5,0.8
			c-0.5,0.1-0.7,0.2-1.1,0.2c-0.4,0.1-0.7-0.1-0.7-0.6C283,48.4,283.3,30.8,283.3,29.9z"/>
		<path class="st0" d="M305.7,50.4c0-0.8,0.5-1,0.6-0.2c0.1,0.8,1,18.3,1,19.3c0,1-0.1,1.1-0.4,1.3c-0.3,0.2-0.5,0.3-1,0.5
			c-0.4,0.2-0.7,0.2-0.7-0.4C305.2,70.4,305.4,55.5,305.7,50.4z"/>
		<path class="st0" d="M295.6,56.8c-0.3-0.5-0.1-0.6,0.2-0.5c0.6,0.1,2.2,0.3,3.4-0.3c1.2-0.6,2.3-1.4,3.5-1.6
			c1.6-0.3,2.3-0.1,1.6,0.8c-1.1,1.4-1.3,3.4-0.2,5c0.3,0.5,0.3,0.8-0.2,0.7c-3.3-0.4-4.7-1.2-7.4,0.4c-0.6,0.3-0.7,0.1-0.5-0.2
			c0.6-0.9,1.3-1.5,2.2-2.1c0.5-0.3,0.3-0.4,0-0.5C296.8,58,295.9,57.3,295.6,56.8z"/>
		<path class="st0" d="M281.9,34.5c-2.2,1-3.5,0.8-4.6,0.2c-0.5-0.3-1-0.5-1.4-0.7c-1.8-0.7-2.7-0.3-3.9,0.6
			c-1.4,1.1-2.9,1.5-4.5,1.9c-1,0.3-2.1,0.7-2.8,1.2c-1.1,0.8-1.6,1.8-1.9,2.6c-0.2,0.6-0.1,0.8,0.4,0.6c1.8-0.7,2.3-1,4.7-0.5
			c2.8,0.6,4.1,0.9,6.8-0.1c2.7-1,4-1.2,5.6-0.3c0.7,0.4,1.5,1,1.7,0.7c0.3-0.3-0.5-0.9-0.6-1.3c-0.6-2,0.2-3.6,0.9-4.5
			C282.3,34.7,282.2,34.3,281.9,34.5z"/>
		<path class="st0" d="M248,47c-0.6-1-0.4-2.7,0.1-3.9c0.3-0.8-0.9-1.1-2.5-0.5c-1.7,0.5-2.7,1.5-5,1.7c-1.8,0.2-3.5-0.2-4.1-0.3
			c-0.5-0.1-0.4,0.1,0.1,0.7c0.3,0.3,1.1,0.9,1.8,1.3c0.3,0.2,0.2,0.4-0.1,0.8c-0.3,0.3-0.9,0.8-1.8,1.2c-0.2,0.1-0.5,0.3,0.4,0.7
			c1.1,0.5,3.4,1.1,6.1,0.1c1.3-0.5,2.2-1.1,3.6-1C248.2,47.8,248.5,47.8,248,47z"/>
		<circle class="st0" cx="323.4" cy="86.9" r="2.2"/>
		<path class="st0" d="M326.4,88.6c-0.6,1-1.7,1.7-3,1.7c-1.3,0-2.4-0.7-3-1.7c-0.8,0.9-1,1.3-1,1.3l1.1,0.9l1,5.3h3.6l1-5.3
			l1.1-0.9C327.4,89.9,327.2,89.4,326.4,88.6z"/>
		<path class="st0" d="M317.5,118.6c-1.7,3.6-0.9,9.3,2.4,15.6l0.5,0.9h4c0,0,0.3-2.4-3.3-7.3C317.8,123.3,317.5,119.5,317.5,118.6z
			"/>
		<path class="st0" d="M230.4,111.6c0.3,0.2,0.3,0.4-0.1,0.2c-0.3-0.2-2.2-1.3-3.2-1.9c-13.9,12.5-31-9.1-17.9-19l18-0.5
			C221.4,100.8,225.2,107.7,230.4,111.6z M226.7,109.7c-6.3-3.5-12.5-4-13.7-0.9C211.3,113.2,221.7,115,226.7,109.7z"/>
	</g>
</g>
</svg>
