<svg xmlns="http://www.w3.org/2000/svg" viewBox="0 0 1794 1128" preserveAspectRatio="xMidYMid meet">

                                        <g transform="translate(0.000000,1128.000000) scale(0.100000,-0.100000)" fill="#FFFFFF" stroke="none">
                                            <path d="M3522 11261 c-109 -40 -200 -130 -244 -241 l-22 -55 -7 -1505 c-4
-828 -10 -2141 -13 -2917 l-7 -1413 415 0 415 0 4 1293 c3 1171 5 1301 20
1387 89 486 352 743 787 767 427 23 728 -165 848 -530 72 -218 79 -301 92
-1087 6 -360 15 -709 20 -774 30 -351 152 -624 372 -832 177 -167 391 -268
663 -311 124 -19 431 -13 540 12 249 56 455 166 613 327 165 168 267 368 324
635 l23 108 3 1558 3 1557 -395 0 -395 0 -3 -1502 c-4 -1669 1 -1546 -70
-1679 -169 -319 -675 -310 -832 14 -56 115 -56 118 -56 802 0 952 -19 1168
-131 1508 -169 516 -519 826 -1044 925 -133 25 -507 24 -625 -2 -210 -45 -416
-133 -552 -236 -36 -28 -98 -84 -137 -126 l-71 -76 -2 1059 -3 1058 -32 67
c-40 85 -106 151 -191 191 -58 28 -79 32 -162 35 -74 2 -107 -2 -148 -17z"></path>
                                            <path d="M7849 10671 c-90 -29 -156 -71 -222 -141 -242 -257 -170 -655 148
-811 282 -138 622 8 715 309 22 71 26 197 9 272 -38 166 -181 319 -347 370
-83 26 -224 26 -303 1z"></path>
                                            <path d="M1840 9324 c-14 -2 -59 -9 -100 -15 -263 -38 -532 -189 -702 -392
l-48 -58 0 190 0 191 -415 0 -415 0 0 -2055 0 -2055 415 0 415 0 0 1158 c1
1164 6 1392 35 1538 48 239 141 415 283 537 70 60 148 100 257 133 85 26 101
28 295 28 223 1 309 -12 419 -61 52 -23 56 -23 72 -6 9 10 105 128 214 263
109 135 216 266 237 292 l38 46 -82 50 c-183 110 -329 168 -492 197 -87 15
-376 28 -426 19z"></path>
                                            <path d="M15930 4320 c-218 -27 -445 -92 -616 -178 -318 -160 -571 -417 -738
-751 -292 -583 -338 -1448 -111 -2112 49 -143 160 -364 243 -484 342 -492 847
-755 1452 -755 441 0 844 111 1155 318 122 81 277 211 273 228 -2 8 -101 135
-221 284 l-218 269 -77 -53 c-332 -230 -590 -315 -919 -304 -279 10 -486 100
-669 289 -176 183 -281 425 -339 781 l-6 38 1388 2 1388 3 9 65 c16 122 12
553 -7 690 -96 691 -398 1193 -882 1469 -154 88 -327 148 -540 186 -106 20
-451 28 -565 15z m391 -746 c350 -60 587 -270 703 -624 30 -93 53 -203 71
-337 l5 -43 -970 0 c-917 0 -970 1 -970 18 0 9 7 56 15 105 87 494 353 811
742 881 107 19 290 19 404 0z"></path>
                                            <path d="M5288 4279 c-349 -31 -681 -159 -943 -365 -288 -225 -497 -533 -624
-920 -93 -281 -126 -514 -125 -869 1 -271 18 -430 70 -644 189 -772 715 -1309
1420 -1452 136 -27 454 -38 602 -19 389 48 733 202 1006 452 331 302 541 734
624 1281 22 145 24 655 4 792 -82 542 -274 943 -607 1263 -373 359 -881 530
-1427 481z m402 -799 c161 -40 347 -145 452 -258 236 -252 358 -623 358 -1084
-1 -302 -57 -555 -178 -791 -208 -411 -559 -616 -967 -567 -456 55 -768 382
-879 922 -71 344 -53 770 45 1071 135 417 400 666 774 728 84 13 300 2 395
-21z"></path>
                                            <path d="M9647 4279 c-307 -34 -596 -178 -770 -383 l-57 -67 0 185 0 186 -420
0 -420 0 0 -2060 0 -2060 420 0 419 0 4 1343 3 1342 22 97 c47 207 112 345
213 453 142 151 309 215 563 215 459 0 685 -211 773 -722 16 -94 17 -217 20
-1415 l4 -1313 419 0 420 0 0 1298 c0 1385 0 1386 50 1577 12 44 44 127 72
185 44 91 62 116 137 191 93 92 177 141 301 176 93 26 396 26 490 0 254 -69
401 -224 485 -511 60 -208 59 -180 62 -1608 l4 -1308 415 0 415 0 -4 1372 c-3
1501 -1 1439 -63 1718 -69 305 -191 557 -360 739 -164 177 -408 301 -694 353
-152 27 -481 30 -643 4 -373 -59 -653 -218 -914 -519 l-50 -57 -36 57 c-169
274 -464 460 -821 518 -117 19 -349 26 -459 14z"></path>
                                            <path d="M160 3845 l0 -355 813 -2 c446 -2 925 -3 1064 -3 l251 0 -16 -21
c-10 -12 -89 -106 -178 -210 -88 -104 -595 -710 -1127 -1346 l-967 -1157 0
-336 0 -335 1625 0 1625 0 -2 357 -3 358 -1123 5 -1123 5 107 125 c59 69 173
206 253 304 80 99 538 659 1018 1245 l872 1066 1 328 0 327 -1545 0 -1545 0 0
-355z"></path>
                                        </g>
                                    </svg>